<svg width="117" height="35" viewBox="0 0 117 35" fill="none" xmlns="http://www.w3.org/2000/svg">
<g clip-path="url(#clip0)">
<path d="M91.4361 13.3718H90.009C89.5499 13.3718 89.1777 13.7439 89.1777 14.203V24.6943C89.1777 25.1534 89.5499 25.5255 90.009 25.5255H91.4361C91.8952 25.5255 92.2674 25.1534 92.2674 24.6943V14.203C92.2674 13.7439 91.8952 13.3718 91.4361 13.3718Z" fill="black"/>
<path d="M90.7345 11.8851C91.8025 11.8851 92.6683 11.0194 92.6683 9.95139C92.6683 8.88341 91.8025 8.01764 90.7345 8.01764C89.6666 8.01764 88.8008 8.88341 88.8008 9.95139C88.8008 11.0194 89.6666 11.8851 90.7345 11.8851Z" fill="black"/>
<path fill-rule="evenodd" clip-rule="evenodd" d="M114.35 17.1526C113.974 17.1518 113.607 17.0395 113.294 16.8301C112.982 16.6206 112.739 16.3233 112.595 15.9758C112.452 15.6282 112.414 15.2459 112.488 14.8771C112.562 14.5084 112.743 14.1697 113.009 13.9038C113.274 13.6379 113.613 13.4567 113.982 13.3832C114.351 13.3096 114.733 13.3469 115.081 13.4904C115.428 13.6339 115.725 13.8772 115.935 14.1895C116.144 14.5017 116.257 14.8691 116.257 15.2451C116.26 15.4963 116.212 15.7454 116.117 15.9778C116.022 16.2103 115.882 16.4215 115.704 16.5991C115.526 16.7767 115.315 16.9171 115.083 17.0122C114.85 17.1072 114.601 17.155 114.35 17.1526ZM114.35 13.5389C114.01 13.5357 113.677 13.6337 113.393 13.8204C113.109 14.0071 112.887 14.2739 112.755 14.5871C112.623 14.9003 112.588 15.2456 112.652 15.5792C112.717 15.9127 112.88 16.2195 113.12 16.4604C113.359 16.7013 113.665 16.8655 113.998 16.9321C114.332 16.9987 114.677 16.9647 114.991 16.8344C115.305 16.7041 115.573 16.4835 115.761 16.2005C115.949 15.9175 116.049 15.5849 116.047 15.2451C116.05 14.7952 115.873 14.3628 115.557 14.0429C115.241 13.7229 114.81 13.5416 114.36 13.5389H114.35ZM114.766 15.4411L115.304 16.1927H114.866L114.383 15.5032H113.967V16.1927H113.588V14.2004H114.475C114.937 14.2004 115.241 14.4375 115.241 14.8356C115.247 14.9742 115.204 15.1105 115.12 15.2208C115.036 15.3311 114.916 15.4084 114.78 15.4394L114.766 15.4411ZM114.45 14.5416H113.956V15.1664H114.45C114.695 15.1664 114.843 15.0456 114.843 14.8514C114.843 14.6589 114.706 14.5416 114.45 14.5416Z" fill="black"/>
</g>
<path fill-rule="evenodd" clip-rule="evenodd" d="M17.4355 0C13.9873 6.94905e-08 10.6166 1.02255 7.74956 2.93832C4.88256 4.85409 2.64807 7.57704 1.32867 10.7628C0.00927472 13.9486 -0.335762 17.454 0.337197 20.8359C1.01016 24.2178 2.67088 27.3241 5.10935 29.7621C7.54782 32.2001 10.6545 33.8602 14.0365 34.5324C17.4185 35.2047 20.9239 34.859 24.1094 33.539C27.2949 32.2189 30.0174 29.9839 31.9326 27.1165C33.8478 24.2491 34.8697 20.8782 34.869 17.43C34.8663 7.8015 27.0622 0 17.4355 0ZM25.4303 25.1449C25.356 25.267 25.2584 25.3732 25.143 25.4575C25.0276 25.5418 24.8967 25.6025 24.7578 25.6362C24.6189 25.6698 24.4747 25.6758 24.3335 25.6536C24.1923 25.6315 24.0569 25.5817 23.935 25.5071C19.84 23.0081 14.688 22.4403 8.61896 23.8271C8.47774 23.8651 8.33031 23.8742 8.1855 23.8539C8.04068 23.8335 7.90146 23.7842 7.77617 23.7087C7.65088 23.6333 7.54211 23.5334 7.45635 23.4149C7.3706 23.2965 7.30964 23.1619 7.27712 23.0194C7.2446 22.8768 7.24119 22.7291 7.26709 22.5852C7.29299 22.4413 7.34768 22.3041 7.42787 22.1818C7.50806 22.0595 7.6121 21.9546 7.73377 21.8735C7.85545 21.7924 7.99224 21.7366 8.13596 21.7096C14.7772 20.1915 20.4735 20.8451 25.0698 23.6521C25.5808 23.9645 25.7418 24.6321 25.4303 25.1449ZM27.5636 20.398C27.4701 20.5506 27.3475 20.6832 27.2027 20.7883C27.0579 20.8934 26.8937 20.9689 26.7197 21.0104C26.5457 21.052 26.3651 21.0587 26.1885 21.0304C26.0118 21.002 25.8425 20.9391 25.6902 20.8451C21.0063 17.9664 13.8611 17.1316 8.31709 18.8134C8.14389 18.8745 7.9601 18.8999 7.77681 18.8881C7.59352 18.8763 7.41453 18.8274 7.25064 18.7445C7.08674 18.6616 6.94134 18.5464 6.82322 18.4057C6.70509 18.2651 6.61668 18.102 6.56332 17.9262C6.50996 17.7505 6.49276 17.5657 6.51276 17.3831C6.53276 17.2006 6.58954 17.0239 6.67967 16.8639C6.76981 16.7039 6.89144 16.5637 7.03721 16.452C7.18298 16.3403 7.34988 16.2592 7.52784 16.2138C13.8611 14.2923 21.7326 15.2224 27.1121 18.5308C27.7517 18.9219 27.9538 19.7575 27.5636 20.398ZM27.7473 15.456C22.1263 12.1249 12.8575 11.8125 7.49284 13.44C7.28607 13.5087 7.06765 13.5352 6.85046 13.5182C6.63326 13.5011 6.42168 13.4407 6.22821 13.3405C6.03473 13.2403 5.86327 13.1024 5.72393 12.9349C5.5846 12.7675 5.48021 12.5738 5.41694 12.3653C5.35366 12.1568 5.33276 11.9378 5.35549 11.7211C5.37822 11.5044 5.4441 11.2945 5.54926 11.1037C5.65441 10.9129 5.79672 10.745 5.96777 10.6101C6.13882 10.4752 6.33516 10.3758 6.54521 10.318C12.7035 8.44375 22.9427 8.81038 29.4107 12.649C29.595 12.7582 29.756 12.9027 29.8845 13.0741C30.013 13.2455 30.1064 13.4406 30.1595 13.6482C30.2126 13.8557 30.2243 14.0717 30.194 14.2838C30.1636 14.4959 30.0917 14.6999 29.9825 14.8842C29.8733 15.0685 29.7289 15.2295 29.5574 15.358C29.386 15.4865 29.1909 15.5799 28.9834 15.633C28.7758 15.6861 28.5598 15.6978 28.3477 15.6674C28.1357 15.6371 27.9316 15.5652 27.7473 15.456ZM47.4331 16.0947C44.4231 15.3773 43.8937 14.8724 43.8937 13.8049C43.8937 12.8056 44.8343 12.1389 46.2361 12.1389C47.5932 12.1389 48.9425 12.6516 50.3495 13.7025C50.3932 13.7331 50.4457 13.7454 50.4982 13.7375C50.5243 13.7337 50.5493 13.7246 50.5717 13.7107C50.5941 13.6969 50.6135 13.6786 50.6286 13.657L52.0986 11.5745C52.1252 11.5327 52.136 11.4828 52.1291 11.4337C52.1222 11.3846 52.0981 11.3396 52.061 11.3068C50.429 9.97712 48.3783 9.26957 46.2737 9.31C43.024 9.31 40.7525 11.2665 40.7525 14.0586C40.7525 17.052 42.7116 18.1099 46.0943 18.928C48.9757 19.593 49.4605 20.1478 49.4605 21.1418C49.4605 22.2425 48.4778 22.9268 46.8958 22.9268C45.1388 22.9268 43.7065 22.3361 42.1078 20.9475C42.0882 20.9303 42.0654 20.9172 42.0407 20.9089C42.016 20.9007 41.9899 20.8974 41.9639 20.8994C41.9379 20.9013 41.9125 20.9085 41.8893 20.9203C41.8661 20.9322 41.8455 20.9486 41.8287 20.9685L40.1793 22.9294C40.1463 22.9684 40.1298 23.0188 40.1334 23.0698C40.137 23.1208 40.1604 23.1684 40.1986 23.2024C42.0131 24.8519 44.3789 25.7633 46.8311 25.7574C50.3328 25.7574 52.5956 23.8438 52.5956 20.881C52.5956 18.3698 51.1011 16.9855 47.4331 16.0947ZM60.5301 13.1259C59.012 13.1259 57.7668 13.7235 56.7387 14.9494V13.5695C56.7362 13.5179 56.7145 13.469 56.678 13.4325C56.6414 13.3959 56.5926 13.3743 56.541 13.3718H53.8372C53.7854 13.3741 53.7364 13.3956 53.6996 13.4322C53.6629 13.4688 53.6411 13.5177 53.6386 13.5695V28.8916C53.6438 28.9984 53.7296 29.0841 53.8363 29.0894H56.5322C56.584 29.087 56.633 29.0655 56.6698 29.0289C56.7065 28.9923 56.7283 28.9434 56.7308 28.8916V24.0555C57.1964 24.6062 57.7792 25.046 58.4365 25.3427C59.0938 25.6395 59.8091 25.7856 60.5301 25.7705C63.3511 25.7705 66.2071 23.6005 66.2071 19.4486C66.2071 15.2976 63.3406 13.1259 60.5301 13.1259ZM63.0615 19.4486C63.0615 21.5618 61.7603 23.0379 59.8948 23.0379C58.0293 23.0379 56.6617 21.4953 56.6617 19.4486C56.6617 17.402 58.053 15.8594 59.9053 15.8594C61.7577 15.8594 63.0615 17.3687 63.0615 19.4486ZM73.5142 13.1259C69.8812 13.1259 67.0357 15.9241 67.0357 19.4941C67.0357 23.0335 69.862 25.7941 73.4687 25.7941C77.114 25.7941 79.9682 23.0064 79.9682 19.4486C79.9682 15.8909 77.135 13.125 73.5142 13.125V13.1259ZM73.5142 23.0606C71.5822 23.0606 70.1253 21.5075 70.1253 19.4504C70.1253 17.3941 71.5306 15.8848 73.4678 15.8848C75.4068 15.8848 76.8803 17.4291 76.8803 19.4941C76.8803 21.5591 75.4646 23.0501 73.5142 23.0501V23.0606ZM87.7277 13.3718H84.7615V10.3381C84.7589 10.2865 84.7373 10.2377 84.7007 10.2011C84.6642 10.1646 84.6153 10.1429 84.5637 10.1404H81.8696C81.818 10.1429 81.7691 10.1646 81.7326 10.2011C81.696 10.2377 81.6744 10.2865 81.6718 10.3381V13.3718H80.3751C80.3238 13.3747 80.2754 13.3965 80.2392 13.4331C80.203 13.4696 80.1816 13.5182 80.1791 13.5695V15.8865C80.1816 15.9378 80.203 15.9864 80.2392 16.0229C80.2754 16.0595 80.3238 16.0813 80.3751 16.0843H81.6718V22.078C81.6718 24.4991 82.8776 25.7268 85.255 25.7268C86.1375 25.7492 87.0097 25.5337 87.7802 25.1029C87.8105 25.0858 87.8356 25.061 87.8532 25.0311C87.8707 25.0011 87.8799 24.967 87.88 24.9323V22.7255C87.8799 22.6919 87.8712 22.6589 87.8548 22.6296C87.8385 22.6003 87.8149 22.5757 87.7864 22.558C87.7578 22.5403 87.7253 22.5302 87.6917 22.5286C87.6582 22.527 87.6248 22.5339 87.5947 22.5488C87.1062 22.8024 86.5632 22.933 86.0127 22.9294C85.1491 22.9294 84.7632 22.5356 84.7632 21.6571V16.0825H87.7295C87.7809 16.0797 87.8296 16.058 87.8659 16.0215C87.9023 15.9849 87.9238 15.9362 87.9263 15.8848V13.5695C87.9237 13.5174 87.9017 13.4683 87.8646 13.4316C87.8275 13.395 87.7781 13.3737 87.726 13.3718H87.7277ZM98.0615 13.384V13.0113C98.0615 11.9166 98.478 11.4275 99.423 11.4275C99.9418 11.434 100.456 11.5287 100.943 11.7075C100.972 11.7173 101.004 11.72 101.035 11.7153C101.066 11.7106 101.095 11.6986 101.12 11.6805C101.146 11.6623 101.166 11.6384 101.181 11.6107C101.195 11.583 101.202 11.5523 101.203 11.5211V9.24788C101.201 9.20578 101.187 9.1651 101.162 9.1312C101.137 9.0973 101.103 9.07178 101.063 9.058C100.337 8.8361 99.5815 8.7272 98.8227 8.73513C96.3246 8.73513 95.0173 10.1369 95.0173 12.789V13.3595H93.7223C93.6689 13.3596 93.6176 13.3802 93.5789 13.417C93.5402 13.4537 93.517 13.5039 93.5141 13.5573V15.8865C93.5168 15.9399 93.5399 15.9902 93.5787 16.027C93.6174 16.0638 93.6689 16.0843 93.7223 16.0843H95.0173V25.3295C95.0198 25.3808 95.0412 25.4294 95.0774 25.4659C95.1136 25.5025 95.162 25.5243 95.2133 25.5273H97.9092C97.9608 25.5247 98.0097 25.5031 98.0462 25.4665C98.0828 25.43 98.1044 25.3811 98.107 25.3295V16.0825H100.625L104.48 25.326C104.043 26.2973 103.612 26.4898 103.023 26.4898C102.5 26.478 101.989 26.3348 101.537 26.0733C101.489 26.048 101.432 26.0427 101.38 26.0584C101.329 26.0771 101.287 26.1151 101.264 26.1643L100.35 28.1698C100.33 28.2149 100.327 28.2663 100.343 28.3134C100.359 28.3605 100.392 28.3998 100.435 28.4235C101.312 28.9204 102.306 29.1747 103.314 29.1603C105.305 29.1603 106.404 28.2336 107.374 25.7399L112.05 13.6649C112.062 13.635 112.066 13.6028 112.062 13.571C112.058 13.5392 112.047 13.5088 112.029 13.4824C112.011 13.4559 111.986 13.4343 111.958 13.4193C111.93 13.4043 111.898 13.3964 111.866 13.3963H109.06C109.019 13.3977 108.98 13.4112 108.946 13.435C108.913 13.4588 108.888 13.4919 108.873 13.5301L105.998 21.7403L102.85 13.5109C102.836 13.4735 102.811 13.4414 102.778 13.4187C102.745 13.396 102.706 13.3839 102.667 13.384H98.0623H98.0615Z" fill="black"/>
<defs>
<clipPath id="clip0">
<rect width="116.375" height="35" fill="white"/>
</clipPath>
</defs>
</svg>
